HIERARCHY
ROOT Hips
{
	OFFSET 0.000000 71.206352 2.654994
	CHANNELS 6 Xposition Yposition Zposition Xrotation Yrotation Zrotation
	JOINT Pelvis
	{
		OFFSET 0.000000 0.000000 0.000000
		CHANNELS 3 Xrotation Yrotation Zrotation
		JOINT LeftUpLeg
		{
			OFFSET 6.797117 -2.508530 -1.318654
			CHANNELS 3 Xrotation Yrotation Zrotation
			JOINT LeftLeg
			{
				OFFSET 2.604768 -29.125713 0.690240
				CHANNELS 3 Xrotation Yrotation Zrotation
				JOINT LeftFoot
				{
					OFFSET 2.495626 -29.462662 -0.266779
					CHANNELS 3 Xrotation Yrotation Zrotation
					JOINT LeftToeBase
					{
						OFFSET 3.145477 -8.630991 16.059889
						CHANNELS 3 Xrotation Yrotation Zrotation
						End Site
						{
							OFFSET 0.000000 18.501570 0.000000
						}
					}
				}
			}
			JOINT Left_ShortSleeve
			{
				OFFSET 1.173896 -10.418373 1.153777
				CHANNELS 3 Xrotation Yrotation Zrotation
				End Site
				{
					OFFSET 0.000000 19.898849 0.000000
				}
			}
		}
		JOINT RightUpLeg
		{
			OFFSET -6.797117 -2.508530 -1.318654
			CHANNELS 3 Xrotation Yrotation Zrotation
			JOINT RightLeg
			{
				OFFSET -2.618195 -29.124561 0.688025
				CHANNELS 3 Xrotation Yrotation Zrotation
				JOINT RightFoot
				{
					OFFSET -2.482200 -29.463818 -0.264565
					CHANNELS 3 Xrotation Yrotation Zrotation
					JOINT RightToeBase
					{
						OFFSET -3.115344 -8.682778 16.113401
						CHANNELS 3 Xrotation Yrotation Zrotation
						End Site
						{
							OFFSET 0.000000 18.567112 0.000000
						}
					}
				}
			}
			JOINT Right_ShortSleeve
			{
				OFFSET -1.173896 -10.418373 1.153777
				CHANNELS 3 Xrotation Yrotation Zrotation
				End Site
				{
					OFFSET 0.000000 19.898849 0.000000
				}
			}
		}
	}
	JOINT Spine
	{
		OFFSET 0.000000 13.368111 0.470529
		CHANNELS 3 Xrotation Yrotation Zrotation
		JOINT Spine1
		{
			OFFSET 0.146996 13.837402 0.538789
			CHANNELS 3 Xrotation Yrotation Zrotation
			JOINT Spine2
			{
				OFFSET 0.167995 16.242874 -1.435485
				CHANNELS 3 Xrotation Yrotation Zrotation
				JOINT Neck
				{
					OFFSET 0.217193 18.631516 -1.679142
					CHANNELS 3 Xrotation Yrotation Zrotation
					JOINT Head
					{
						OFFSET 0.000000 6.599380 1.385859
						CHANNELS 3 Xrotation Yrotation Zrotation
						JOINT Hat
						{
							OFFSET -0.532184 27.220581 -10.096070
							CHANNELS 3 Xrotation Yrotation Zrotation
							End Site
							{
								OFFSET 0.000000 22.029861 0.000000
							}
						}
						JOINT HairD
						{
							OFFSET -10.777430 17.437408 -1.325938
							CHANNELS 3 Xrotation Yrotation Zrotation
							JOINT HairD1
							{
								OFFSET -3.290256 -11.051163 1.062188
								CHANNELS 3 Xrotation Yrotation Zrotation
								End Site
								{
									OFFSET 0.000000 11.579391 0.000000
								}
							}
						}
						JOINT HairB
						{
							OFFSET -10.777430 17.437408 1.467893
							CHANNELS 3 Xrotation Yrotation Zrotation
							JOINT HairB1
							{
								OFFSET -1.561211 -12.956329 3.590162
								CHANNELS 3 Xrotation Yrotation Zrotation
								End Site
								{
									OFFSET 0.000000 13.534882 0.000000
								}
							}
						}
						JOINT HairA
						{
							OFFSET 9.713062 17.437408 1.467893
							CHANNELS 3 Xrotation Yrotation Zrotation
							JOINT HairA1
							{
								OFFSET 1.561211 -12.956329 3.590162
								CHANNELS 3 Xrotation Yrotation Zrotation
								End Site
								{
									OFFSET 0.000000 13.534882 0.000000
								}
							}
						}
						JOINT HairC
						{
							OFFSET 9.713062 17.437408 -1.325938
							CHANNELS 3 Xrotation Yrotation Zrotation
							JOINT HairC1
							{
								OFFSET 3.290255 -11.051163 1.062188
								CHANNELS 3 Xrotation Yrotation Zrotation
								End Site
								{
									OFFSET 0.000000 11.579391 0.000000
								}
							}
						}
					}
				}
				JOINT LeftShoulder
				{
					OFFSET 5.101767 15.108002 -2.763695
					CHANNELS 3 Xrotation Yrotation Zrotation
					JOINT LeftArm
					{
						OFFSET 9.825546 2.506256 -1.597438
						CHANNELS 3 Xrotation Yrotation Zrotation
						JOINT LeftForeArm
						{
							OFFSET 21.924620 0.000000 -1.351923
							CHANNELS 3 Xrotation Yrotation Zrotation
							JOINT LeftHand
							{
								OFFSET 33.867149 -0.000336 -0.895185
								CHANNELS 3 Xrotation Yrotation Zrotation
								JOINT LeftHandThumb1
								{
									OFFSET 6.800735 -1.610214 3.624442
									CHANNELS 3 Xrotation Yrotation Zrotation
									JOINT LeftHandThumb2
									{
										OFFSET 2.133118 -1.047562 2.197256
										CHANNELS 3 Xrotation Yrotation Zrotation
										JOINT LeftHandThumb3
										{
											OFFSET 2.939781 -1.955193 1.239051
											CHANNELS 3 Xrotation Yrotation Zrotation
											End Site
											{
												OFFSET 0.000000 3.741707 0.000000
											}
										}
									}
								}
								JOINT LeftHandIndex1
								{
									OFFSET 14.184837 0.837936 3.778969
									CHANNELS 3 Xrotation Yrotation Zrotation
									JOINT LeftHandIndex2
									{
										OFFSET 3.454674 -0.747025 -0.349037
										CHANNELS 3 Xrotation Yrotation Zrotation
										JOINT LeftHandIndex3
										{
											OFFSET 2.708313 -1.000595 -0.200658
											CHANNELS 3 Xrotation Yrotation Zrotation
											End Site
											{
												OFFSET 0.000000 2.894211 0.000000
											}
										}
									}
								}
								JOINT LeftHandMiddle1
								{
									OFFSET 13.765343 0.551865 -0.058510
									CHANNELS 3 Xrotation Yrotation Zrotation
									JOINT LeftHandMiddle2
									{
										OFFSET 3.329315 -0.830414 -0.218270
										CHANNELS 3 Xrotation Yrotation Zrotation
										JOINT LeftHandMiddle3
										{
											OFFSET 3.521812 -1.082275 -0.230450
											CHANNELS 3 Xrotation Yrotation Zrotation
											End Site
											{
												OFFSET 0.000000 3.691559 0.000000
											}
										}
									}
								}
								JOINT LeftHandRing1
								{
									OFFSET 13.969360 -0.122360 -3.062001
									CHANNELS 3 Xrotation Yrotation Zrotation
									JOINT LeftHandRing2
									{
										OFFSET 3.063065 -0.760193 -0.203345
										CHANNELS 3 Xrotation Yrotation Zrotation
										JOINT LeftHandRing3
										{
											OFFSET 3.200409 -0.861923 -0.256632
											CHANNELS 3 Xrotation Yrotation Zrotation
											End Site
											{
												OFFSET 0.000000 3.324356 0.000000
											}
										}
									}
								}
								JOINT LeftHandPinky1
								{
									OFFSET 13.134644 -0.420990 -5.726565
									CHANNELS 3 Xrotation Yrotation Zrotation
									JOINT LeftHandPinky2
									{
										OFFSET 2.705887 -0.872284 -0.187246
										CHANNELS 3 Xrotation Yrotation Zrotation
										JOINT LeftHandPinky3
										{
											OFFSET 2.653091 -0.882462 -0.224701
											CHANNELS 3 Xrotation Yrotation Zrotation
											End Site
											{
												OFFSET 0.000000 2.805023 0.000000
											}
										}
									}
								}
							}
							JOINT Left_Sleeve
							{
								OFFSET 6.611050 -0.646652 0.631114
								CHANNELS 3 Xrotation Yrotation Zrotation
								End Site
								{
									OFFSET 0.000000 20.275742 0.000000
								}
							}
						}
					}
				}
				JOINT RightShoulder
				{
					OFFSET -5.731749 15.108002 -2.763695
					CHANNELS 3 Xrotation Yrotation Zrotation
					JOINT RightArm
					{
						OFFSET -9.825546 2.506256 -1.597438
						CHANNELS 3 Xrotation Yrotation Zrotation
						JOINT RightForeArm
						{
							OFFSET -21.924620 0.000000 -1.351923
							CHANNELS 3 Xrotation Yrotation Zrotation
							JOINT RightHand
							{
								OFFSET -33.867149 -0.000336 -0.895185
								CHANNELS 3 Xrotation Yrotation Zrotation
								JOINT RightHandThumb1
								{
									OFFSET -6.800735 -1.610214 3.624442
									CHANNELS 3 Xrotation Yrotation Zrotation
									JOINT RightHandThumb2
									{
										OFFSET -2.133118 -1.047562 2.197256
										CHANNELS 3 Xrotation Yrotation Zrotation
										JOINT RightHandThumb3
										{
											OFFSET -2.939781 -1.955193 1.239051
											CHANNELS 3 Xrotation Yrotation Zrotation
											End Site
											{
												OFFSET 0.000000 3.741707 0.000000
											}
										}
									}
								}
								JOINT RightHandIndex1
								{
									OFFSET -14.184837 0.837936 3.778969
									CHANNELS 3 Xrotation Yrotation Zrotation
									JOINT RightHandIndex2
									{
										OFFSET -3.454674 -0.747025 -0.349037
										CHANNELS 3 Xrotation Yrotation Zrotation
										JOINT RightHandIndex3
										{
											OFFSET -2.708313 -1.000595 -0.200658
											CHANNELS 3 Xrotation Yrotation Zrotation
											End Site
											{
												OFFSET 0.000000 2.894211 0.000000
											}
										}
									}
								}
								JOINT RightHandMiddle1
								{
									OFFSET -13.765343 0.551865 -0.058511
									CHANNELS 3 Xrotation Yrotation Zrotation
									JOINT RightHandMiddle2
									{
										OFFSET -3.329315 -0.830414 -0.218269
										CHANNELS 3 Xrotation Yrotation Zrotation
										JOINT RightHandMiddle3
										{
											OFFSET -3.521812 -1.082275 -0.230450
											CHANNELS 3 Xrotation Yrotation Zrotation
											End Site
											{
												OFFSET 0.000000 3.691559 0.000000
											}
										}
									}
								}
								JOINT RightHandRing1
								{
									OFFSET -13.969353 -0.122360 -3.062001
									CHANNELS 3 Xrotation Yrotation Zrotation
									JOINT RightHandRing2
									{
										OFFSET -3.063072 -0.760193 -0.203345
										CHANNELS 3 Xrotation Yrotation Zrotation
										JOINT RightHandRing3
										{
											OFFSET -3.200409 -0.861923 -0.256632
											CHANNELS 3 Xrotation Yrotation Zrotation
											End Site
											{
												OFFSET 0.000000 3.324356 0.000000
											}
										}
									}
								}
								JOINT RightHandPinky1
								{
									OFFSET -13.134644 -0.420990 -5.726565
									CHANNELS 3 Xrotation Yrotation Zrotation
									JOINT RightHandPinky2
									{
										OFFSET -2.705887 -0.872284 -0.187247
										CHANNELS 3 Xrotation Yrotation Zrotation
										JOINT RightHandPinky3
										{
											OFFSET -2.653091 -0.882462 -0.224700
											CHANNELS 3 Xrotation Yrotation Zrotation
											End Site
											{
												OFFSET 0.000000 2.805023 0.000000
											}
										}
									}
								}
							}
							JOINT Right_Sleeve
							{
								OFFSET -6.611050 -0.646652 0.631114
								CHANNELS 3 Xrotation Yrotation Zrotation
								End Site
								{
									OFFSET 0.000000 20.275742 0.000000
								}
							}
						}
					}
				}
				JOINT Bind_Right_JacketString
				{
					OFFSET -3.534774 11.969604 7.200667
					CHANNELS 3 Xrotation Yrotation Zrotation
					JOINT Bind_Right_JacketString1
					{
						OFFSET -0.319887 -6.102631 2.794061
						CHANNELS 3 Xrotation Yrotation Zrotation
						End Site
						{
							OFFSET 0.000000 6.719467 0.000000
						}
					}
				}
				JOINT Bind_Left_JacketString
				{
					OFFSET 2.904793 11.969604 7.200667
					CHANNELS 3 Xrotation Yrotation Zrotation
					JOINT Bind_Left_JacketString1
					{
						OFFSET 0.364847 -5.904457 3.186764
						CHANNELS 3 Xrotation Yrotation Zrotation
						End Site
						{
							OFFSET 0.000000 6.719460 0.000000
						}
					}
				}
				JOINT HairE
				{
					OFFSET 5.915198 17.612656 -11.592244
					CHANNELS 3 Xrotation Yrotation Zrotation
					JOINT HairE1
					{
						OFFSET 0.289203 -7.171906 -1.284488
						CHANNELS 3 Xrotation Yrotation Zrotation
						End Site
						{
							OFFSET 0.000000 7.291763 0.000000
						}
					}
				}
				JOINT HairF
				{
					OFFSET -0.864797 17.612656 -11.592244
					CHANNELS 3 Xrotation Yrotation Zrotation
					JOINT HairF1
					{
						OFFSET -0.000000 -14.087097 -2.127508
						CHANNELS 3 Xrotation Yrotation Zrotation
						End Site
						{
							OFFSET 0.000000 14.246841 0.000000
						}
					}
				}
				JOINT HairG
				{
					OFFSET -8.087694 17.612656 -11.592244
					CHANNELS 3 Xrotation Yrotation Zrotation
					JOINT HairG1
					{
						OFFSET -0.293551 -6.081375 -0.910136
						CHANNELS 3 Xrotation Yrotation Zrotation
						End Site
						{
							OFFSET 0.000000 6.156113 0.000000
						}
					}
				}
			}
		}
	}
	JOINT Pouch
	{
		OFFSET 0.000000 4.394547 10.847303
		CHANNELS 3 Xrotation Yrotation Zrotation
		End Site
		{
			OFFSET 0.000000 21.880577 0.000000
		}
	}
	JOINT Bag
	{
		OFFSET -13.229022 4.813034 -0.593262
		CHANNELS 3 Xrotation Yrotation Zrotation
		End Site
		{
			OFFSET 0.000000 21.880577 0.000000
		}
	}
	JOINT OccupyGuyFacialAnim_Joint
	{
		OFFSET 1.000000 -70.206352 -1.654994
		CHANNELS 3 Xrotation Yrotation Zrotation
		End Site
		{
			OFFSET 0.000000 21.880581 0.000000
		}
	}
}
MOTION
Frames: 4
Frame Time: 0.016667
-0.242743 70.190964 1.651600 -3.655907 -0.273105 -3.001121 0.000000 0.000000 -0.000000 -6.791076 14.342578 2.606447 22.985403 11.968854 2.196989 -13.811369 2.965544 -2.100803 -0.000000 0.000000 -0.000000 -0.000000 0.000001 0.000000 -7.365103 -4.543579 4.436334 13.402547 -11.336968 -3.474882 -2.183814 -13.091224 1.737316 -0.000000 -0.000000 0.000000 -0.000000 0.000000 0.000000 4.755003 1.355883 0.175705 2.572230 0.188490 0.804270 2.570293 0.195339 0.808666 -1.342908 -0.050186 -0.205819 -4.952819 -0.368062 -0.267113 0.000000 0.000000 0.000000 0.000000 0.000000 0.000000 0.000000 -0.000000 0.000000 0.000000 0.000000 0.000000 0.000000 0.000000 0.000000 0.000000 0.000000 0.000000 0.000000 0.000000 0.000000 0.000000 0.000000 0.000000 0.000000 -0.000000 0.000000 0.348351 0.827242 -4.748556 -8.508899 -27.695483 -77.471516 0.000022 -4.235923 0.000523 14.883223 -2.626916 -7.754601 5.859253 29.275905 7.157754 -10.252729 -8.824364 5.810765 -0.000000 -0.000001 -0.000001 -1.093387 -4.854151 -10.057909 -0.607805 1.250493 -12.335865 -0.000003 -0.000001 -0.000000 -0.594293 -2.701301 -10.292247 -1.930474 0.188714 -28.340644 -0.000000 0.000001 -0.000002 -0.651885 -2.473166 -13.050509 -3.543353 0.316608 -43.908277 -0.000001 0.000000 -0.000002 1.444890 1.149743 -11.378176 -5.600782 -2.683305 -55.598641 -0.000000 0.000001 0.000001 0.000002 -0.000000 -0.000000 0.341724 -1.804781 5.898465 -10.573693 9.432383 76.411198 0.000018 6.301944 -0.000501 36.172456 5.081920 3.703513 4.325240 -31.648296 -8.414647 -11.846219 11.226070 -6.343227 0.000003 0.000001 0.000001 -0.003746 1.650365 14.512484 -0.108674 -1.274916 6.230257 -0.000000 0.000000 -0.000000 1.377205 -1.263782 15.919750 -1.399201 -0.059807 20.487615 -0.000003 0.000001 -0.000001 2.345990 -2.420781 20.093366 -2.848056 0.113339 33.922954 -0.000001 0.000000 0.000001 3.345252 -3.126107 19.527536 -3.644323 -0.494811 43.612407 -0.000000 0.000002 0.000003 -0.000000 -0.000000 0.000001 -0.000000 -0.000000 -0.000000 -0.000000 -0.000000 -0.000000 -0.000000 -0.000000 -0.000000 -0.000000 -0.000000 -0.000000 -0.000000 -0.000000 -0.000000 -0.000000 0.000000 -0.000000 -0.000000 -0.000000 -0.000000 -0.000000 -0.000000 -0.000000 -0.000000 -0.000000 -0.000000 -0.000000 0.000000 -0.000000 0.000000 0.000000 -0.000000 0.000000 0.000000 -0.000000 0.000000 0.000000 -0.000000 
-0.241051 70.189880 1.634886 -3.642729 -0.312703 -3.013280 -0.000000 0.000000 0.000000 -6.835099 14.370078 2.643980 23.019054 11.965888 2.157239 -13.818452 2.959413 -2.078315 -0.000000 -0.000002 -0.000000 0.000001 -0.000001 -0.000000 -7.391171 -4.543349 4.437131 13.383438 -11.337256 -3.453233 -2.156054 -13.053925 1.716601 0.000000 0.000002 -0.000000 -0.000000 0.000000 0.000000 4.724477 1.374691 0.185100 2.581958 0.191239 0.804231 2.580007 0.197996 0.808711 -1.369562 -0.055531 -0.193555 -4.967041 -0.376295 -0.278138 -0.000000 0.000000 -0.000000 -0.000000 0.000000 -0.000000 -0.000000 0.000000 -0.000000 -0.000000 0.000000 -0.000000 -0.000000 0.000000 -0.000000 -0.000000 0.000000 -0.000000 -0.000000 0.000000 -0.000000 -0.000000 0.000000 -0.000000 -0.000000 0.000000 -0.000000 0.347455 0.837248 -4.741750 -8.406672 -27.546554 -77.451668 0.000028 -4.117100 0.000511 15.066117 -2.604584 -7.831141 5.853430 29.316401 7.172063 -10.252731 -8.824364 5.810763 0.000003 0.000000 -0.000002 -1.085304 -4.839914 -10.002928 -0.607801 1.250511 -12.335865 -0.000000 -0.000000 -0.000001 -0.570600 -2.651469 -10.195228 -1.928977 0.188159 -28.317636 0.000002 -0.000003 -0.000002 -0.602639 -2.381487 -12.900498 -3.540103 0.313932 -43.857013 -0.000001 0.000001 0.000003 1.506140 1.280299 -11.190297 -5.597103 -2.688391 -55.525196 -0.000000 0.000001 -0.000000 0.000001 0.000001 -0.000000 0.343149 -1.818727 5.908407 -10.527895 9.364609 76.412229 0.000019 6.268567 -0.000480 36.183651 5.032408 3.690724 4.346773 -31.633447 -8.385372 -11.846217 11.226071 -6.343252 0.000000 0.000001 -0.000000 -0.021502 1.683863 14.549811 -0.108673 -1.274919 6.230181 -0.000004 0.000000 -0.000000 1.365322 -1.240265 15.942403 -1.399195 -0.059804 20.487484 -0.000001 0.000000 -0.000000 2.339870 -2.410340 20.098627 -2.848033 0.113329 33.922705 -0.000001 0.000000 -0.000000 3.343893 -3.126337 19.519106 -3.644338 -0.494808 43.612397 -0.000000 0.000001 0.000001 0.000000 0.000000 -0.000000 -0.000000 -0.000000 -0.000000 -0.000000 -0.000000 -0.000000 -0.000000 -0.000000 -0.000000 -0.000000 -0.000000 0.000000 -0.000000 -0.000000 0.000000 -0.000000 0.000000 -0.000000 -0.000000 -0.000000 -0.000000 -0.000000 -0.000000 -0.000000 -0.000000 -0.000000 0.000000 -0.000000 0.000000 -0.000000 -0.000000 0.000000 0.000000 -0.000000 0.000000 0.000000 -0.000000 0.000000 0.000000 
-0.240194 70.188499 1.618681 -3.636953 -0.358154 -3.026578 -0.000000 0.000000 0.000000 -6.871464 14.396280 2.680512 23.054856 11.963085 2.122239 -13.827816 2.960632 -2.059568 0.000000 -0.000000 0.000000 0.000001 0.000000 0.000000 -7.412715 -4.540408 4.441223 13.369519 -11.337209 -3.434415 -2.130837 -13.012625 1.697037 -0.000000 -0.000000 -0.000000 0.000001 0.000000 0.000000 4.708470 1.399287 0.194450 2.590686 0.194722 0.803344 2.588719 0.201398 0.807921 -1.393975 -0.062377 -0.180074 -4.978302 -0.387753 -0.294712 0.000000 -0.000000 0.000000 0.000000 -0.000000 0.000000 0.000000 0.000000 0.000000 0.000000 -0.000000 0.000000 0.000000 -0.000000 0.000000 0.000000 -0.000000 0.000000 0.000000 -0.000000 0.000000 0.000000 -0.000000 0.000000 0.000000 0.000000 0.000000 0.346955 0.834368 -4.735649 -8.326103 -27.387624 -77.433875 0.000011 -3.997930 0.000484 15.203680 -2.590049 -7.905486 5.846467 29.358445 7.188123 -10.252735 -8.824365 5.810763 -0.000000 0.000000 -0.000000 -1.075910 -4.822297 -9.946454 -0.607796 1.250494 -12.335849 0.000001 -0.000001 -0.000001 -0.542806 -2.592587 -10.080261 -1.926741 0.187314 -28.283002 0.000002 -0.000000 0.000001 -0.545617 -2.273740 -12.712028 -3.535192 0.309874 -43.779388 -0.000002 -0.000000 0.000001 1.574878 1.434457 -10.948339 -5.591471 -2.696058 -55.413615 0.000002 0.000001 -0.000000 0.000001 0.000000 -0.000000 0.344003 -1.820555 5.917447 -10.480673 9.314180 76.411560 0.000011 6.253773 -0.000443 36.183118 5.005429 3.681174 4.364519 -31.618551 -8.360756 -11.846208 11.226084 -6.343229 -0.000002 -0.000002 0.000001 -0.044852 1.727098 14.617978 -0.108654 -1.274917 6.230150 -0.000003 0.000001 -0.000000 1.349740 -1.209144 15.984210 -1.399191 -0.059785 20.487345 -0.000001 0.000000 0.000000 2.331082 -2.395569 20.108688 -2.848018 0.113343 33.922497 0.000001 0.000000 0.000001 3.340729 -3.124956 19.504094 -3.644337 -0.494810 43.612421 -0.000001 -0.000001 -0.000000 -0.000000 -0.000000 0.000001 0.000000 0.000000 -0.000000 0.000000 0.000000 -0.000000 0.000000 0.000000 -0.000000 0.000000 0.000000 -0.000000 0.000000 0.000000 -0.000000 0.000000 0.000000 -0.000000 0.000000 0.000000 -0.000000 0.000000 0.000000 -0.000000 0.000000 0.000000 -0.000000 0.000000 0.000000 0.000000 -0.000000 0.000000 0.000000 -0.000000 0.000000 0.000000 -0.000000 0.000000 0.000000 
-0.239437 70.186813 1.603119 -3.638426 -0.404125 -3.039056 -0.000000 0.000000 -0.000000 -6.899058 14.417643 2.711099 23.090580 11.960810 2.095030 -13.838137 2.969287 -2.044886 -0.000000 -0.000000 0.000000 0.000000 0.000000 -0.000000 -7.429643 -4.535908 4.446415 13.361827 -11.336871 -3.419797 -2.108867 -12.971576 1.680640 0.000000 0.000000 -0.000000 -0.000000 -0.000000 -0.000000 4.707421 1.426015 0.203884 2.598472 0.198443 0.801674 2.596479 0.205050 0.806348 -1.416042 -0.070100 -0.166236 -4.986066 -0.401495 -0.314482 -0.000000 -0.000000 0.000000 -0.000000 -0.000000 0.000000 -0.000000 -0.000000 0.000000 -0.000000 -0.000000 -0.000000 -0.000000 -0.000000 -0.000000 -0.000000 -0.000000 -0.000000 -0.000000 -0.000000 -0.000000 -0.000000 -0.000000 0.000000 -0.000000 -0.000000 0.000000 0.346656 0.819095 -4.726538 -8.262725 -27.222479 -77.421096 0.000026 -3.883579 0.000518 15.289923 -2.579008 -7.976094 5.838650 29.397001 7.204577 -10.252732 -8.824364 5.810764 -0.000001 0.000003 0.000003 -1.066309 -4.804011 -9.890962 -0.607798 1.250503 -12.335841 0.000000 0.000001 0.000001 -0.513609 -2.530351 -9.952135 -1.923808 0.186247 -28.237786 -0.000002 0.000000 -0.000000 -0.486040 -2.159109 -12.492742 -3.528736 0.304605 -43.677940 -0.000002 -0.000002 0.000002 1.644114 1.600083 -10.661738 -5.584100 -2.706108 -55.267521 -0.000001 -0.000002 -0.000000 -0.000003 0.000001 -0.000000 0.344246 -1.806889 5.926574 -10.431276 9.273723 76.406970 0.000021 6.252812 -0.000498 36.176493 4.996331 3.670910 4.378554 -31.605191 -8.340996 -11.846216 11.226067 -6.343247 -0.000000 0.000000 0.000000 -0.072973 1.778627 14.713214 -0.108661 -1.274910 6.230106 -0.000001 0.000000 -0.000001 1.331368 -1.172138 16.043964 -1.399184 -0.059793 20.487200 -0.000001 0.000003 0.000000 2.321050 -2.378345 20.125523 -2.848016 0.113359 33.922223 -0.000001 0.000001 -0.000002 3.337671 -3.123821 19.486975 -3.644334 -0.494791 43.612401 0.000001 0.000001 -0.000001 -0.000000 -0.000000 -0.000000 -0.000000 0.000000 0.000000 -0.000000 0.000000 0.000000 -0.000000 0.000000 0.000000 -0.000000 0.000000 0.000000 -0.000000 0.000000 0.000000 -0.000000 -0.000000 0.000000 -0.000000 0.000000 0.000000 -0.000000 0.000000 0.000000 -0.000000 0.000000 0.000000 -0.000000 -0.000000 0.000000 -0.000000 0.000000 -0.000000 -0.000000 0.000000 -0.000000 -0.000000 0.000000 -0.000000 
